<?xml version="1.0" encoding="utf-8" ?><svg xmlns="http://www.w3.org/2000/svg" xmlns:xlink="http://www.w3.org/1999/xlink" width="1170" height="843" viewBox="0 0 1170 843"><path fill="white" d="M366.976 363.263C377.603 376.044 384.444 391.108 394.654 404.068C398.692 409.194 403.292 413.443 408.141 417.77L402.699 409.768C406.677 398.33 423.938 371.261 433.836 364.511C434.578 365.048 435.031 365.285 435.508 366.071C446.998 377.432 454.45 393.433 463.326 406.815L491.939 449.805C498.791 460.161 506.496 470.687 511.409 482.14C504.457 483.089 497.836 482.994 490.849 482.614L452.112 422.392C445.915 412.709 440.168 402.511 433.517 393.154C425.118 404.805 416.29 416.278 408.976 428.652L416.72 439.373C421.891 445.634 443.959 473.484 442.862 480.243C442.724 481.092 442.407 481.239 441.702 481.662C437.704 484.058 428.405 482.332 423.845 481.812C415.023 468.736 406.16 455.75 398.262 442.084C397.122 443.635 396.023 445.244 394.787 446.718C390.713 453.252 386.086 459.498 382.086 466.045C379.104 472.097 375.018 477.106 370.467 482.007C342.141 482.261 313.814 482.271 285.487 482.04C292.195 464.125 306.063 450.38 316.753 434.892C333.302 410.918 348.947 386.172 366.976 363.263ZM315.258 466.077C330.721 465.802 346.067 465.44 361.522 466.148C367.808 451.728 379.056 439.495 388.979 427.459L367.073 392.931L329.605 445.01C324.728 451.908 320.904 459.765 315.258 466.077Z"/><path fill="#ED4141" d="M366.976 363.263C377.603 376.044 384.444 391.108 394.654 404.068C398.692 409.194 403.292 413.443 408.141 417.77L402.699 409.768C406.677 398.33 423.938 371.261 433.836 364.511C434.578 365.048 435.031 365.285 435.508 366.071C446.998 377.432 454.45 393.433 463.326 406.815L491.939 449.805C498.791 460.161 506.496 470.687 511.409 482.14C504.457 483.089 497.836 482.994 490.849 482.614L452.112 422.392C445.915 412.709 440.168 402.511 433.517 393.154C425.118 404.805 416.29 416.278 408.976 428.652C400.863 419 395.014 408.192 388.437 397.498C381.729 386.828 374.686 376.372 367.32 366.145C351.862 386.335 338.148 407.796 323.457 428.54L302.28 458.563C297.55 465.286 292.103 472.132 288.508 479.545C302.192 481.111 315.964 481.783 329.736 481.556C343.014 481.386 356.253 480.404 369.547 480.315C373.332 475.425 376.798 469.411 382.086 466.045C379.104 472.097 375.018 477.106 370.467 482.007C342.141 482.261 313.814 482.271 285.487 482.04C292.195 464.125 306.063 450.38 316.753 434.892C333.302 410.918 348.947 386.172 366.976 363.263Z"/><path d="M366.976 363.263C377.603 376.044 384.444 391.108 394.654 404.068C398.692 409.194 403.292 413.443 408.141 417.77L402.699 409.768C406.677 398.33 423.938 371.261 433.836 364.511C427.529 380.85 411.017 391.86 404.368 408.168C406.782 412.44 409.248 416.688 412.511 420.385C419.558 410.427 426.485 400.384 433.29 390.258C444.492 405.983 455.23 422.033 465.492 438.387C474.378 452.608 481.484 468.113 493.237 480.294L508.484 480.327L455.85 398.191C449.268 387.993 439.321 377.621 435.508 366.071C446.998 377.432 454.45 393.433 463.326 406.815L491.939 449.805C498.791 460.161 506.496 470.687 511.409 482.14C504.457 483.089 497.836 482.994 490.849 482.614L452.112 422.392C445.915 412.709 440.168 402.511 433.517 393.154C425.118 404.805 416.29 416.278 408.976 428.652C400.863 419 395.014 408.192 388.437 397.498C381.729 386.828 374.686 376.372 367.32 366.145C351.862 386.335 338.148 407.796 323.457 428.54L302.28 458.563C297.55 465.286 292.103 472.132 288.508 479.545C302.192 481.111 315.964 481.783 329.736 481.556C343.014 481.386 356.253 480.404 369.547 480.315C373.332 475.425 376.798 469.411 382.086 466.045C379.104 472.097 375.018 477.106 370.467 482.007C342.141 482.261 313.814 482.271 285.487 482.04C292.195 464.125 306.063 450.38 316.753 434.892C333.302 410.918 348.947 386.172 366.976 363.263Z"/><path d="M366.394 390.139C375.96 402.487 384.04 415.993 392.305 429.228C403.126 446.557 413.927 463.705 425.872 480.293L441.66 480.29C433.63 467.047 421.034 454.378 416.72 439.373C421.891 445.634 443.959 473.484 442.862 480.243C442.724 481.092 442.407 481.239 441.702 481.662C437.704 484.058 428.405 482.332 423.845 481.812C415.023 468.736 406.16 455.75 398.262 442.084C397.122 443.635 396.023 445.244 394.787 446.718C392.546 441.98 390.128 437.406 387.162 433.072C380.961 442.561 371.276 460.438 361.522 466.148C367.808 451.728 379.056 439.495 388.979 427.459L367.073 392.931L329.605 445.01C324.728 451.908 320.904 459.765 315.258 466.077C315.487 462.877 317.848 459.592 319.525 456.902C324.459 448.987 330.391 441.625 335.772 434.005L366.394 390.139Z"/><path fill="white" d="M822.353 381.771C833.231 379.992 843.513 387.307 845.395 398.166C847.278 409.024 840.058 419.372 829.214 421.356C818.225 423.367 807.705 416.031 805.798 405.026C803.89 394.021 811.327 383.574 822.353 381.771ZM828.637 413.929C835.293 412.338 839.473 405.74 838.068 399.043C836.663 392.347 830.182 387.985 823.447 389.203C818.921 390.021 815.196 393.234 813.722 397.59C812.249 401.947 813.259 406.76 816.36 410.157C819.461 413.554 824.163 414.999 828.637 413.929Z"/><path fill="white" d="M660.222 382.355C668.772 382.227 679.632 381.888 686.206 388.394C688.125 390.294 689.323 392.778 689.273 395.507C689.176 400.897 684.924 404.787 681.38 408.287C683.042 410.092 684.811 412.21 685.931 414.402C687.009 416.512 687.828 418.56 687.108 420.867L685.88 421.425C684.025 421.122 682.595 420.554 680.915 419.721C678.293 416.743 676.212 413.473 674.068 410.149L664.394 409.5L664.412 421.142C661.763 421.084 659.212 421.267 656.578 421.538C656.336 414.024 654.362 389.771 657.459 384.108C658.179 382.793 658.906 382.799 660.222 382.355ZM664.404 403.837C669.584 403.719 674.315 403.333 679.268 401.722C680.463 399.039 681.815 396.271 680.501 393.336C679.559 391.231 677.441 390.123 675.354 389.438C671.928 388.314 667.958 388.349 664.392 388.362L664.404 403.837Z"/><path fill="white" d="M760.886 382.381C762.416 382.284 763.949 382.243 765.481 382.256C772.66 382.266 781.777 383.116 787.006 388.717C788.82 390.66 789.834 393.076 789.711 395.753C789.468 401.046 785.418 404.873 781.902 408.326C783.91 410.344 786.037 412.934 787.119 415.583C787.899 417.491 788.364 418.808 787.58 420.725L786.364 421.217C784.426 421.032 783.086 420.411 781.378 419.508C778.808 416.36 776.564 412.921 774.246 409.586L764.341 409.627C764.791 413.406 764.914 417.182 765.05 420.982L757.56 420.998C757.307 413.423 754.848 389.235 758.095 383.684C758.716 382.621 759.783 382.653 760.886 382.381ZM765.052 403.948C769.993 403.527 775.02 403.114 779.778 401.629C781.015 399.21 782.46 396.841 781.537 394.035C780.919 392.16 779.367 390.979 777.618 390.208C773.852 388.546 769.103 388.449 765.038 388.314L765.052 403.948Z"/><path fill="white" d="M545.536 381.08C555.071 385.803 559.9 398.235 564.63 407.258C567.926 400.449 571.713 390.287 577.724 385.41C579.253 384.17 580.386 383.594 582.359 383.759C583.087 384.163 583.767 384.514 584.261 385.209C588.505 391.168 585.775 413.53 584.889 421.104L578.244 420.999L577.801 409.077L577.537 397.44C574.669 402.465 571.939 410.193 566.825 413.359C565.512 414.172 564.097 414.419 562.608 413.945C557.227 412.23 552.937 402.181 550.427 397.581C551.19 405.531 550.511 413.661 550.052 421.616L543.536 420.916C541.313 407.82 541.179 393.718 545.536 381.08Z"/><path fill="white" d="M709.519 382.386C717.195 381.727 725.961 381.554 732.748 385.719C736.1 387.776 738.882 390.967 739.687 394.903C740.223 397.521 739.751 400.144 738.223 402.347C735.065 406.901 729.586 408.526 724.42 409.353C721.016 409.774 717.633 409.996 714.209 410.169C714.535 413.899 714.219 417.737 714.089 421.476C711.576 421.171 709.199 421.294 706.683 421.452C706.457 414.282 705.01 389.539 707.26 384.112C707.797 382.816 708.332 382.837 709.519 382.386ZM714.694 403.946C719.699 403.439 724.576 402.931 729.475 401.738C730.704 399.288 732.179 396.876 731.228 394.052C730.638 392.298 729.231 391.075 727.589 390.317C723.712 388.527 718.848 388.499 714.654 388.416L714.694 403.946Z"/><path fill="white" d="M617.328 382.659L624.189 382.472C628.238 389.569 639.328 409.858 640.097 417.439C640.269 419.135 640.083 420.523 639.016 421.814L638.336 421.87C635.231 420.766 632.933 417.613 630.861 415.197C628.654 412.623 627.785 412.472 624.561 412.228L611.652 411.842C610.049 414.821 608.698 417.984 607.253 421.046L599.834 420.959C604.976 407.86 609.905 394.681 617.328 382.659ZM614.196 405.967L620.277 406.008L626.179 405.943L626.683 405.271C626.005 401.131 623.463 396.223 621.212 392.713C620.965 392.329 620.723 391.947 620.468 391.569C618.362 396.35 616.134 401.116 614.196 405.967Z"/><path fill="#ED4141" d="M827.234 444.56C834.24 442.795 841.355 447.021 843.158 454.015C844.96 461.01 840.772 468.146 833.785 469.985C826.745 471.838 819.541 467.612 817.725 460.565C815.909 453.517 820.175 446.338 827.234 444.56ZM832.275 465.784C836.996 464.741 839.981 460.074 838.947 455.352C837.913 450.631 833.25 447.638 828.525 448.663C823.788 449.691 820.785 454.368 821.822 459.102C822.859 463.836 827.542 466.829 832.275 465.784Z"/><path fill="#ED4141" d="M776.349 444.248C781.38 444.304 786.432 444.62 791.46 444.83C794.183 446.23 796.91 447.741 797.839 450.908C798.609 453.534 797.712 456.166 796.398 458.445C795.629 459.779 794.601 461.003 793.638 462.2C794.848 463.751 795.874 464.847 796.058 466.885L795.404 467.707C792.194 467.354 790.349 465.399 788.431 462.985C788.248 462.755 788.082 462.511 787.913 462.271C786.778 462.383 785.625 462.479 784.5 462.674C781.795 463.144 781.805 468.525 780.252 470.747L779.294 470.759C774.019 464.965 776.033 451.532 776.349 444.248ZM782.181 458.156L789.402 458.072C790.479 457.522 791.784 456.724 792.496 455.729C793.047 454.959 793.286 454.062 793.144 453.147C792.763 450.704 790.51 449.444 788.639 448.167C786.281 448.538 783.919 448.961 781.553 449.269C781.956 452.253 782.14 455.146 782.181 458.156Z"/><path fill="white" d="M791.46 444.83C794.183 446.23 796.91 447.741 797.839 450.908C798.609 453.534 797.712 456.166 796.398 458.445C795.629 459.779 794.601 461.003 793.638 462.2C794.848 463.751 795.874 464.847 796.058 466.885L795.404 467.707C792.194 467.354 790.349 465.399 788.431 462.985C788.248 462.755 788.082 462.511 787.913 462.271L789.402 458.072C790.479 457.522 791.784 456.724 792.496 455.729C793.047 454.959 793.286 454.062 793.144 453.147C792.763 450.704 790.51 449.444 788.639 448.167L791.46 444.83Z"/><path fill="#ED4141" d="M745.163 444.408C750.206 444.627 754.031 445.962 758.666 447.862C755.492 448.205 746.359 448.265 744.222 450.53C745.088 455.411 755.185 457.115 757.364 462.216C757.682 462.959 757.83 464.275 757.5 465.033C756.225 467.971 753.115 468.796 750.368 469.943C747.424 470.253 743.638 470.047 740.839 469.005C739.484 468.501 738.908 468.1 738.274 466.849C741.762 464.436 747.941 466.651 751.764 464.674C751.51 461.145 741.592 456.69 739.18 453.245C738.016 451.582 738.074 450.595 738.349 448.719C740.031 446.07 742.303 445.264 745.163 444.408Z"/><path fill="white" d="M761.691 465.16C762.949 464.354 764.621 464.703 765.451 465.946C766.28 467.189 765.961 468.866 764.733 469.718C763.919 470.283 762.863 470.364 761.972 469.931C761.08 469.497 760.492 468.617 760.434 467.627C760.376 466.638 760.857 465.695 761.691 465.16Z"/><path fill="white" d="M802.671 465.211C803.503 464.849 804.467 464.973 805.18 465.533C805.894 466.094 806.242 467 806.087 467.894C805.933 468.788 805.3 469.525 804.439 469.813C803.186 470.232 801.826 469.591 801.352 468.358C800.878 467.125 801.46 465.738 802.671 465.211Z"/><path fill="white" d="M847.731 465.181C849.033 464.768 850.422 465.494 850.826 466.799C851.231 468.103 850.496 469.488 849.189 469.884C847.893 470.277 846.523 469.55 846.122 468.257C845.721 466.964 846.44 465.59 847.731 465.181Z"/></svg>