<?xml version="1.0" encoding="UTF-8" standalone="no"?><!DOCTYPE svg PUBLIC "-//W3C//DTD SVG 1.1//EN" "http://www.w3.org/Graphics/SVG/1.1/DTD/svg11.dtd"><svg width="100%" height="100%" viewBox="0 0 1170 843" version="1.1" xmlns="http://www.w3.org/2000/svg" xmlns:xlink="http://www.w3.org/1999/xlink" xml:space="preserve" xmlns:serif="http://www.serif.com/" style="fill-rule:evenodd;clip-rule:evenodd;stroke-linejoin:round;stroke-miterlimit:2;"><path d="M366.976,363.263c10.627,12.781 17.468,27.845 27.678,40.805c4.038,5.126 8.638,9.375 13.487,13.702l-5.442,-8.002c3.978,-11.438 21.239,-38.507 31.137,-45.257c0.742,0.537 1.195,0.774 1.672,1.56c11.49,11.361 18.942,27.362 27.818,40.744l28.613,42.99c6.852,10.356 14.557,20.882 19.47,32.335c-6.952,0.949 -13.573,0.854 -20.56,0.474l-38.737,-60.222c-6.197,-9.683 -11.944,-19.881 -18.595,-29.238c-8.399,11.651 -17.227,23.124 -24.541,35.498l7.744,10.721c5.171,6.261 27.239,34.111 26.142,40.87c-0.138,0.849 -0.455,0.996 -1.16,1.419c-3.998,2.396 -13.297,0.67 -17.857,0.15c-8.822,-13.076 -17.685,-26.062 -25.583,-39.728c-1.14,1.551 -2.239,3.16 -3.475,4.634c-4.074,6.534 -8.701,12.78 -12.701,19.327c-2.982,6.052 -7.068,11.061 -11.619,15.962c-28.326,0.254 -56.653,0.264 -84.98,0.033c6.708,-17.915 20.576,-31.66 31.266,-47.148c16.549,-23.974 32.194,-48.72 50.223,-71.629Zm-51.718,102.814c15.463,-0.275 30.809,-0.637 46.264,0.071c6.286,-14.42 17.534,-26.653 27.457,-38.689l-21.906,-34.528l-37.468,52.079c-4.877,6.898 -8.701,14.755 -14.347,21.067Z" style="fill:#fff;fill-rule:nonzero;"/><path d="M366.976,363.263c10.627,12.781 17.468,27.845 27.678,40.805c4.038,5.126 8.638,9.375 13.487,13.702l-5.442,-8.002c3.978,-11.438 21.239,-38.507 31.137,-45.257c0.742,0.537 1.195,0.774 1.672,1.56c11.49,11.361 18.942,27.362 27.818,40.744l28.613,42.99c6.852,10.356 14.557,20.882 19.47,32.335c-6.952,0.949 -13.573,0.854 -20.56,0.474l-38.737,-60.222c-6.197,-9.683 -11.944,-19.881 -18.595,-29.238c-8.399,11.651 -17.227,23.124 -24.541,35.498c-8.113,-9.652 -13.962,-20.46 -20.539,-31.154c-6.708,-10.67 -13.751,-21.126 -21.117,-31.353c-15.458,20.19 -29.172,41.651 -43.863,62.395l-21.177,30.023c-4.73,6.723 -10.177,13.569 -13.772,20.982c13.684,1.566 27.456,2.238 41.228,2.011c13.278,-0.17 26.517,-1.152 39.811,-1.241c3.785,-4.89 7.251,-10.904 12.539,-14.27c-2.982,6.052 -7.068,11.061 -11.619,15.962c-28.326,0.254 -56.653,0.264 -84.98,0.033c6.708,-17.915 20.576,-31.66 31.266,-47.148c16.549,-23.974 32.194,-48.72 50.223,-71.629Z" style="fill:#ed4141;fill-rule:nonzero;"/><path d="M366.976,363.263c10.627,12.781 17.468,27.845 27.678,40.805c4.038,5.126 8.638,9.375 13.487,13.702l-5.442,-8.002c3.978,-11.438 21.239,-38.507 31.137,-45.257c-6.307,16.339 -22.819,27.349 -29.468,43.657c2.414,4.272 4.88,8.52 8.143,12.217c7.047,-9.958 13.974,-20.001 20.779,-30.127c11.202,15.725 21.94,31.775 32.202,48.129c8.886,14.221 15.992,29.726 27.745,41.907l15.247,0.033l-52.634,-82.136c-6.582,-10.198 -16.529,-20.57 -20.342,-32.12c11.49,11.361 18.942,27.362 27.818,40.744l28.613,42.99c6.852,10.356 14.557,20.882 19.47,32.335c-6.952,0.949 -13.573,0.854 -20.56,0.474l-38.737,-60.222c-6.197,-9.683 -11.944,-19.881 -18.595,-29.238c-8.399,11.651 -17.227,23.124 -24.541,35.498c-8.113,-9.652 -13.962,-20.46 -20.539,-31.154c-6.708,-10.67 -13.751,-21.126 -21.117,-31.353c-15.458,20.19 -29.172,41.651 -43.863,62.395l-21.177,30.023c-4.73,6.723 -10.177,13.569 -13.772,20.982c13.684,1.566 27.456,2.238 41.228,2.011c13.278,-0.17 26.517,-1.152 39.811,-1.241c3.785,-4.89 7.251,-10.904 12.539,-14.27c-2.982,6.052 -7.068,11.061 -11.619,15.962c-28.326,0.254 -56.653,0.264 -84.98,0.033c6.708,-17.915 20.576,-31.66 31.266,-47.148c16.549,-23.974 32.194,-48.72 50.223,-71.629Z" style="fill-rule:nonzero;"/><path d="M366.394,390.139c9.566,12.348 17.646,25.854 25.911,39.089c10.821,17.329 21.622,34.477 33.567,51.065l15.788,-0.003c-8.03,-13.243 -20.626,-25.912 -24.94,-40.917c5.171,6.261 27.239,34.111 26.142,40.87c-0.138,0.849 -0.455,0.996 -1.16,1.419c-3.998,2.396 -13.297,0.67 -17.857,0.15c-8.822,-13.076 -17.685,-26.062 -25.583,-39.728c-1.14,1.551 -2.239,3.16 -3.475,4.634c-2.241,-4.738 -4.659,-9.312 -7.625,-13.646c-6.201,9.489 -15.886,27.366 -25.64,33.076c6.286,-14.42 17.534,-26.653 27.457,-38.689l-21.906,-34.528l-37.468,52.079c-4.877,6.898 -8.701,14.755 -14.347,21.067c0.229,-3.2 2.59,-6.485 4.267,-9.175c4.934,-7.915 10.866,-15.277 16.247,-22.897l30.622,-43.866Z" style="fill-rule:nonzero;"/><path d="M822.353,381.771c10.878,-1.779 21.16,5.536 23.042,16.395c1.883,10.858 -5.337,21.206 -16.181,23.19c-10.989,2.011 -21.509,-5.325 -23.416,-16.33c-1.908,-11.005 5.529,-21.452 16.555,-23.255Zm6.284,32.158c6.656,-1.591 10.836,-8.189 9.431,-14.886c-1.405,-6.696 -7.886,-11.058 -14.621,-9.84c-4.526,0.818 -8.251,4.031 -9.725,8.387c-1.473,4.357 -0.463,9.17 2.638,12.567c3.101,3.397 7.803,4.842 12.277,3.772Z" style="fill:#fff;fill-rule:nonzero;"/><path d="M660.222,382.355c8.55,-0.128 19.41,-0.467 25.984,6.039c1.919,1.9 3.117,4.384 3.067,7.113c-0.097,5.39 -4.349,9.28 -7.893,12.78c1.662,1.805 3.431,3.923 4.551,6.115c1.078,2.11 1.897,4.158 1.177,6.465l-1.228,0.558c-1.855,-0.303 -3.285,-0.871 -4.965,-1.704c-2.622,-2.978 -4.703,-6.248 -6.847,-9.572l-9.674,-0.649l0.018,11.642c-2.649,-0.058 -5.2,0.125 -7.834,0.396c-0.242,-7.514 -2.216,-31.767 0.881,-37.43c0.72,-1.315 1.447,-1.309 2.763,-1.753Zm4.182,21.482c5.18,-0.118 9.911,-0.504 14.864,-2.115c1.195,-2.683 2.547,-5.451 1.233,-8.386c-0.942,-2.105 -3.06,-3.213 -5.147,-3.898c-3.426,-1.124 -7.396,-1.089 -10.962,-1.076l0.012,15.475Z" style="fill:#fff;fill-rule:nonzero;"/><path d="M760.886,382.381c1.53,-0.097 3.063,-0.138 4.595,-0.125c7.179,0.01 16.296,0.86 21.525,6.461c1.814,1.943 2.828,4.359 2.705,7.036c-0.243,5.293 -4.293,9.12 -7.809,12.573c2.008,2.018 4.135,4.608 5.217,7.257c0.78,1.908 1.245,3.225 0.461,5.142l-1.216,0.492c-1.938,-0.185 -3.278,-0.806 -4.986,-1.709c-2.57,-3.148 -4.814,-6.587 -7.132,-9.922l-9.905,0.041c0.45,3.779 0.573,7.555 0.709,11.355l-7.49,0.016c-0.253,-7.575 -2.712,-31.763 0.535,-37.314c0.621,-1.063 1.688,-1.031 2.791,-1.303Zm4.166,21.567c4.941,-0.421 9.968,-0.834 14.726,-2.319c1.237,-2.419 2.682,-4.788 1.759,-7.594c-0.618,-1.875 -2.17,-3.056 -3.919,-3.827c-3.766,-1.662 -8.515,-1.759 -12.58,-1.894l0.014,15.634Z" style="fill:#fff;fill-rule:nonzero;"/><path d="M545.536,381.08c9.535,4.723 14.364,17.155 19.094,26.178c3.296,-6.809 7.083,-16.971 13.094,-21.848c1.529,-1.24 2.662,-1.816 4.635,-1.651c0.728,0.404 1.408,0.755 1.902,1.45c4.244,5.959 1.514,28.321 0.628,35.895l-6.645,-0.105l-0.443,-11.922l-0.264,-11.637c-2.868,5.025 -5.598,12.753 -10.712,15.919c-1.313,0.813 -2.728,1.06 -4.217,0.586c-5.381,-1.715 -9.671,-11.764 -12.181,-16.364c0.763,7.95 0.084,16.08 -0.375,24.035l-6.516,-0.7c-2.223,-13.096 -2.357,-27.198 2,-39.836Z" style="fill:#fff;fill-rule:nonzero;"/><path d="M709.519,382.386c7.676,-0.659 16.442,-0.832 23.229,3.333c3.352,2.057 6.134,5.248 6.939,9.184c0.536,2.618 0.064,5.241 -1.464,7.444c-3.158,4.554 -8.637,6.179 -13.803,7.006c-3.404,0.421 -6.787,0.643 -10.211,0.816c0.326,3.73 0.01,7.568 -0.12,11.307c-2.513,-0.305 -4.89,-0.182 -7.406,-0.024c-0.226,-7.17 -1.673,-31.913 0.577,-37.34c0.537,-1.296 1.072,-1.275 2.259,-1.726Zm5.175,21.56c5.005,-0.507 9.882,-1.015 14.781,-2.208c1.229,-2.45 2.704,-4.862 1.753,-7.686c-0.59,-1.754 -1.997,-2.977 -3.639,-3.735c-3.877,-1.79 -8.741,-1.818 -12.935,-1.901l0.04,15.53Z" style="fill:#fff;fill-rule:nonzero;"/><path d="M617.328,382.659l6.861,-0.187c4.049,7.097 15.139,27.386 15.908,34.967c0.172,1.696 -0.014,3.084 -1.081,4.375l-0.68,0.056c-3.105,-1.104 -5.403,-4.257 -7.475,-6.673c-2.207,-2.574 -3.076,-2.725 -6.3,-2.969l-12.909,-0.386c-1.603,2.979 -2.954,6.142 -4.399,9.204l-7.419,-0.087c5.142,-13.099 10.071,-26.278 17.494,-38.3Zm-3.132,23.308l6.081,0.041l5.902,-0.065l0.504,-0.672c-0.678,-4.14 -3.22,-9.048 -5.471,-12.558c-0.247,-0.384 -0.489,-0.766 -0.744,-1.144c-2.106,4.781 -4.334,9.547 -6.272,14.398Z" style="fill:#fff;fill-rule:nonzero;"/><path d="M827.234,444.56c7.006,-1.765 14.121,2.461 15.924,9.455c1.802,6.995 -2.386,14.131 -9.373,15.97c-7.04,1.853 -14.244,-2.373 -16.06,-9.42c-1.816,-7.048 2.45,-14.227 9.509,-16.005Zm5.041,21.224c4.721,-1.043 7.706,-5.71 6.672,-10.432c-1.034,-4.721 -5.697,-7.714 -10.422,-6.689c-4.737,1.028 -7.74,5.705 -6.703,10.439c1.037,4.734 5.72,7.727 10.453,6.682Z" style="fill:#ed4141;fill-rule:nonzero;"/><path d="M776.349,444.248c5.031,0.056 10.083,0.372 15.111,0.582c2.723,1.4 5.45,2.911 6.379,6.078c0.77,2.626 -0.127,5.258 -1.441,7.537c-0.769,1.334 -1.797,2.558 -2.76,3.755c1.21,1.551 2.236,2.647 2.42,4.685l-0.654,0.822c-3.21,-0.353 -5.055,-2.308 -6.973,-4.722c-0.183,-0.23 -0.349,-0.474 -0.518,-0.714c-1.135,0.112 -2.288,0.208 -3.413,0.403c-2.705,0.47 -2.695,5.851 -4.248,8.073l-0.958,0.012c-5.275,-5.794 -3.261,-19.227 -2.945,-26.511Zm5.832,13.908l7.221,-0.084c1.077,-0.55 2.382,-1.348 3.094,-2.343c0.551,-0.77 0.79,-1.667 0.648,-2.582c-0.381,-2.443 -2.634,-3.703 -4.505,-4.98c-2.358,0.371 -4.72,0.794 -7.086,1.102c0.403,2.984 0.587,5.877 0.628,8.887Z" style="fill:#ed4141;fill-rule:nonzero;"/><path d="M791.46,444.83c2.723,1.4 5.45,2.911 6.379,6.078c0.77,2.626 -0.127,5.258 -1.441,7.537c-0.769,1.334 -1.797,2.558 -2.76,3.755c1.21,1.551 2.236,2.647 2.42,4.685l-0.654,0.822c-3.21,-0.353 -5.055,-2.308 -6.973,-4.722c-0.183,-0.23 -0.349,-0.474 -0.518,-0.714l1.489,-4.199c1.077,-0.55 2.382,-1.348 3.094,-2.343c0.551,-0.77 0.79,-1.667 0.648,-2.582c-0.381,-2.443 -2.634,-3.703 -4.505,-4.98l2.821,-3.337Z" style="fill:#ed4141;fill-rule:nonzero;"/><path d="M745.163,444.408c5.043,0.219 8.868,1.554 13.503,3.454c-3.174,0.343 -12.307,0.403 -14.444,2.668c0.866,4.881 10.963,6.585 13.142,11.686c0.318,0.743 0.466,2.059 0.136,2.817c-1.275,2.938 -4.385,3.763 -7.132,4.91c-2.944,0.31 -6.73,0.104 -9.529,-0.938c-1.355,-0.504 -1.931,-0.905 -2.565,-2.156c3.488,-2.413 9.667,-0.198 13.49,-2.175c-0.254,-3.529 -10.172,-7.984 -12.584,-11.429c-1.164,-1.663 -1.106,-2.65 -0.831,-4.526c1.682,-2.649 3.954,-3.455 6.814,-4.311Z" style="fill:#ed4141;fill-rule:nonzero;"/><path d="M761.691,465.16c1.258,-0.806 2.93,-0.457 3.76,0.786c0.829,1.243 0.51,2.92 -0.718,3.772c-0.814,0.565 -1.87,0.646 -2.761,0.213c-0.892,-0.434 -1.48,-1.314 -1.538,-2.304c-0.058,-0.989 0.423,-1.932 1.257,-2.467Z" style="fill:#fff;fill-rule:nonzero;"/><path d="M802.671,465.211c0.832,-0.362 1.796,-0.238 2.509,0.322c0.714,0.561 1.062,1.467 0.907,2.361c-0.154,0.894 -0.787,1.631 -1.648,1.919c-1.253,0.419 -2.613,-0.222 -3.087,-1.455c-0.474,-1.233 0.108,-2.62 1.319,-3.147Z" style="fill:#fff;fill-rule:nonzero;"/><path d="M847.731,465.181c1.302,-0.413 2.691,0.313 3.095,1.618c0.405,1.304 -0.33,2.689 -1.637,3.085c-1.296,0.393 -2.666,-0.334 -3.067,-1.627c-0.401,-1.293 0.318,-2.667 1.609,-3.076Z" style="fill:#fff;fill-rule:nonzero;"/></svg>