<svg xmlns="http://www.w3.org/2000/svg" xmlns:xlink="http://www.w3.org/1999/xlink" viewBox="285.78 363.53 565.18 119.46"><path fill="#565556" d="M366.863 363.527C378.426 376.358 385.275 392.23 395.535 405.88C399.269 410.849 404.353 413.937 408.491 418.549C406.903 415.497 405.015 412.746 403.04 409.935C403.569 408.14 404.278 406.403 405.156 404.749C408.263 398.938 428.877 365.965 434.281 364.382L434.934 365.551C442.562 372.797 453.161 391.916 459.59 401.568C472.32 420.679 485.353 439.594 497.657 458.983C502.175 466.104 508.009 473.853 510.964 481.743C504.352 483.713 497.718 482.928 490.952 482.234L450.407 419.343C444.758 410.584 439.62 401.173 433.623 392.698C428.821 399.631 411.184 422.8 408.95 428.696C411.031 431.585 413.126 434.461 415.086 437.435C424.986 449.946 436.74 465.985 443.695 480.254C442.912 481.444 442.314 481.55 440.906 481.868C435.987 482.979 428.918 482.109 423.9 481.555C415.059 468.486 406.504 455.225 398.242 441.782L394.766 446.682C390.766 453.159 386.899 459.627 382.033 465.509C379.272 471.494 374.782 476.94 370.502 481.916C342.296 482.148 313.989 482.203 285.782 481.893C292.32 465.781 305.569 451.514 315.485 437.296C332.634 412.707 349.225 387.777 366.863 363.527ZM315.251 466.227C325.086 465.984 334.923 465.892 344.76 465.954C350.266 465.955 356.025 465.623 361.482 466.278C366.715 455.427 381.418 437.634 389.269 427.394C382.24 415.52 374.429 404.115 367.052 392.454L326.353 449.312C322.477 454.724 319.596 461.234 315.251 466.227Z"/><path fill="#EB3F41" d="M366.863 363.527C378.426 376.358 385.275 392.23 395.535 405.88C399.269 410.849 404.353 413.937 408.491 418.549C406.903 415.497 405.015 412.746 403.04 409.935C403.569 408.14 404.278 406.403 405.156 404.749C408.263 398.938 428.877 365.965 434.281 364.382L434.934 365.551C442.562 372.797 453.161 391.916 459.59 401.568C472.32 420.679 485.353 439.594 497.657 458.983C502.175 466.104 508.009 473.853 510.964 481.743C504.352 483.713 497.718 482.928 490.952 482.234L450.407 419.343C444.758 410.584 439.62 401.173 433.623 392.698C428.821 399.631 411.184 422.8 408.95 428.696C401.833 421.398 396.81 410.751 391.396 402.128C383.742 389.84 375.684 377.81 367.233 366.056C354.452 383.404 342.649 401.501 330.159 419.063C319.077 434.339 308.281 449.821 297.777 465.499C294.769 469.96 290.583 474.534 288.626 479.55C297.14 480.971 306.315 480.877 314.951 481.013C333.133 481.3 351.408 480.825 369.583 480.3C373.696 475.998 377.051 468.482 382.033 465.509C379.272 471.494 374.782 476.94 370.502 481.916C342.296 482.148 313.989 482.203 285.782 481.893C292.32 465.781 305.569 451.514 315.485 437.296C332.634 412.707 349.225 387.777 366.863 363.527Z"/><path d="M366.863 363.527C378.426 376.358 385.275 392.23 395.535 405.88C399.269 410.849 404.353 413.937 408.491 418.549C406.903 415.497 405.015 412.746 403.04 409.935C403.569 408.14 404.278 406.403 405.156 404.749C408.263 398.938 428.877 365.965 434.281 364.382C428.024 378.414 411.276 393.92 404.399 408.179C406.675 412.67 409.048 416.708 412.492 420.412C419.565 410.46 426.518 400.422 433.347 390.301C447.262 409.059 459.44 429.01 471.876 448.76C478.415 459.143 484.446 471.608 493.086 480.311C498.307 480.585 503.449 480.508 508.672 480.328L449.569 388.801C445.735 382.814 436.575 371.843 434.934 365.551C442.562 372.797 453.161 391.916 459.59 401.568C472.32 420.679 485.353 439.594 497.657 458.983C502.175 466.104 508.009 473.853 510.964 481.743C504.352 483.713 497.718 482.928 490.952 482.234L450.407 419.343C444.758 410.584 439.62 401.173 433.623 392.698C428.821 399.631 411.184 422.8 408.95 428.696C401.833 421.398 396.81 410.751 391.396 402.128C383.742 389.84 375.684 377.81 367.233 366.056C354.452 383.404 342.649 401.501 330.159 419.063C319.077 434.339 308.281 449.821 297.777 465.499C294.769 469.96 290.583 474.534 288.626 479.55C297.14 480.971 306.315 480.877 314.951 481.013C333.133 481.3 351.408 480.825 369.583 480.3C373.696 475.998 377.051 468.482 382.033 465.509C379.272 471.494 374.782 476.94 370.502 481.916C342.296 482.148 313.989 482.203 285.782 481.893C292.32 465.781 305.569 451.514 315.485 437.296C332.634 412.707 349.225 387.777 366.863 363.527Z"/><path d="M366.382 390.157C372.681 397.824 377.859 406.54 383.246 414.869C397.31 436.62 410.24 459.424 425.722 480.193C431.039 480.457 436.42 480.288 441.745 480.262C435.828 470.505 417.606 445.705 415.086 437.435C424.986 449.946 436.74 465.985 443.695 480.254C442.912 481.444 442.314 481.55 440.906 481.868C435.987 482.979 428.918 482.109 423.9 481.555C415.059 468.486 406.504 455.225 398.242 441.782L394.766 446.682C392.95 441.712 390.191 437.516 387.198 433.183C382.945 438.843 366.625 464.653 361.482 466.278C366.715 455.427 381.418 437.634 389.269 427.394C382.24 415.52 374.429 404.115 367.052 392.454L326.353 449.312C322.477 454.724 319.596 461.234 315.251 466.227L314.891 466.025L314.686 465.224C319.391 456.329 326.223 447.789 332.005 439.515C343.57 423.136 355.029 406.683 366.382 390.157Z"/><path fill="#565556" d="M821.966 381.764C832.927 379.774 843.428 387.037 845.43 397.992C847.432 408.948 840.178 419.454 829.221 421.467C818.249 423.482 807.722 416.217 805.717 405.246C803.712 394.274 810.99 383.757 821.966 381.764ZM829.209 413.95C834.747 412.36 838.545 407.271 838.492 401.511C838.455 397.543 836.583 393.816 833.422 391.417C830.26 389.018 826.166 388.218 822.333 389.25C815.455 391.102 811.405 398.205 813.315 405.066C815.225 411.927 822.362 415.917 829.209 413.95Z"/><path fill="#565556" d="M662.486 382.371C665.277 382.288 668.099 382.322 670.891 382.424C676.464 382.628 682.619 384.198 686.428 388.553C688.395 390.801 689.522 393.645 689.211 396.654C688.673 401.849 685.003 404.969 681.278 408.076C683.504 411.145 686.841 414.903 687.83 418.579C688.156 419.79 688.058 419.952 687.476 420.985C685.257 421.808 682.968 420.75 680.909 419.888C678.221 416.882 676.214 413.403 674.107 409.983L664.408 409.562L664.344 421.041L656.898 420.989C656.158 412.088 655.879 391.796 657.156 383.225C658.615 382.151 660.733 382.41 662.486 382.371ZM664.403 403.807C669.451 403.775 674.631 404.053 679.269 401.746C680.548 399.129 682.107 396.455 680.913 393.486C680.074 391.4 678.215 390.326 676.192 389.604C672.523 388.294 668.236 388.402 664.399 388.345L664.403 403.807Z"/><path fill="#565556" d="M763.324 382.36C765.503 382.342 767.683 382.359 769.863 382.408C775.89 382.549 782.596 383.671 786.831 388.397C788.792 390.584 789.923 393.411 789.66 396.365C789.186 401.672 785.47 404.964 781.722 408.261C783.939 411.156 788.786 416.061 788.467 419.835C787.372 420.929 786.76 421.025 785.194 421.094C783.305 421.178 782.262 420.264 780.931 419.057C778.493 416.132 776.483 412.892 774.407 409.707C771.098 409.528 767.733 409.638 764.417 409.625C764.787 413.32 764.818 417.071 764.955 420.781C762.476 420.629 759.987 420.721 757.504 420.759C757.413 409.284 756.345 394.314 757.697 383.233C759.201 382.211 761.546 382.43 763.324 382.36ZM764.996 403.728C770.43 403.713 774.77 403.705 779.86 401.517C781.181 399.267 782.815 396.838 781.973 394.104C781.403 392.253 779.858 391.047 778.147 390.29C774.148 388.521 769.333 388.517 765.04 388.407L764.996 403.728Z"/><path fill="#565556" d="M545.754 381.103C553.067 383.615 560.18 400.852 564.649 407.538C568.023 401.059 573.794 386.697 579.992 383.052C581.301 382.282 581.926 382.355 583.331 382.758C587.629 387.475 585.313 413.843 585.01 421.127L578.153 420.891C578.119 416.476 578.056 412.063 577.963 407.65L577.726 396.643C574.733 401.628 570.871 411.534 566.012 414.604C565.097 415.182 564.04 415.335 563.015 414.999C558.258 413.439 552.847 400.951 550.351 396.464C550.665 404.6 550.26 412.927 550.101 421.072L543.262 420.849C542.844 410.851 540.306 389.557 545.754 381.103Z"/><path fill="#565556" d="M710.53 382.409C718.352 381.889 728.133 381.553 734.699 386.625C737.386 388.7 739.337 391.684 739.639 395.118C739.93 398.437 738.646 401.569 736.418 403.994C732.504 408.253 727.413 409.376 721.871 409.695C719.378 409.987 716.813 410.021 714.304 410.155C714.464 413.763 714.292 417.414 714.236 421.026L706.68 421.017C706.723 408.523 706.408 395.901 707.06 383.428C708.149 382.332 709.023 382.551 710.53 382.409ZM714.439 403.865C719.712 403.65 724.579 403.357 729.61 401.576C730.886 399.351 732.377 397.035 731.694 394.349C731.226 392.508 729.771 391.231 728.112 390.435C723.981 388.452 719.153 388.492 714.68 388.429C714.61 393.569 714.633 398.73 714.439 403.865Z"/><path fill="#565556" d="M617.248 382.687C619.568 382.505 621.949 382.562 624.278 382.53C627.048 387.933 640.127 414.109 640.367 418.361C640.423 419.342 639.999 420.075 639.219 420.656C637.965 421.59 637.312 421.572 635.833 421.325C633.214 419.358 631.625 415.695 629.766 412.988C628.383 412.122 627.329 412.111 625.747 412.081L625.133 412.075L611.39 411.843L607.302 421.009L599.932 420.674C605.13 407.901 609.962 394.43 617.248 382.687ZM613.955 405.955L620.53 406.088L627.143 406.008C625.446 400.75 623.567 395.891 620.647 391.158C618.309 396.034 615.835 400.88 613.955 405.955Z"/><path fill="#EB3F41" d="M825.97 445.015C829.997 443.577 834.472 444.202 837.951 446.687C841.43 449.172 843.472 453.203 843.416 457.477C843.344 463.051 839.74 467.963 834.444 469.706C827.655 471.941 820.33 468.303 818.011 461.544C815.691 454.785 819.239 447.418 825.97 445.015ZM833.201 465.733C837.872 464.162 840.398 459.115 838.856 454.436C837.314 449.756 832.282 447.199 827.591 448.711C822.859 450.237 820.274 455.322 821.83 460.044C823.385 464.765 828.488 467.318 833.201 465.733Z"/><path fill="#EB3F41" d="M777.036 444.433C781.909 444.35 786.821 444.788 791.685 445.064C794.411 446.434 796.978 448.054 797.869 451.2C798.475 453.342 798.003 455.615 796.894 457.507C795.933 459.146 794.388 460.393 792.991 461.651C794.386 463.406 796.126 465.132 796.547 467.385L795.995 468.347C794.383 468.388 793.039 467.794 791.856 466.68C790.469 465.374 789.259 463.777 788.116 462.262C786.017 462.381 783.994 462.511 781.928 462.937C781.942 464.235 782.021 465.606 781.898 466.897C781.738 468.572 781.685 469.013 780.407 470.079C779.35 469.953 778.816 470.029 778.119 469.096C774.984 464.896 776.661 449.715 777.036 444.433ZM781.608 448.927C781.896 452.023 781.926 454.999 781.805 458.105L789.701 458.099C791.316 457.371 792.723 456.59 793.357 454.825C793.755 453.716 793.581 452.496 793.018 451.477C791.978 449.592 790.359 448.988 788.402 448.39C786.122 448.695 783.908 448.876 781.608 448.927Z"/><path fill="#565556" d="M791.685 445.064C794.411 446.434 796.978 448.054 797.869 451.2C798.475 453.342 798.003 455.615 796.894 457.507C795.933 459.146 794.388 460.393 792.991 461.651C794.386 463.406 796.126 465.132 796.547 467.385L795.995 468.347C794.383 468.388 793.039 467.794 791.856 466.68C790.469 465.374 789.259 463.777 788.116 462.262C788.382 460.806 789.098 459.445 789.701 458.099C791.316 457.371 792.723 456.59 793.357 454.825C793.755 453.716 793.581 452.496 793.018 451.477C791.978 449.592 790.359 448.988 788.402 448.39C789.413 447.226 790.595 446.158 791.685 445.064Z"/><path fill="#EB3F41" d="M742.599 444.941C743.436 444.893 744.274 444.851 745.112 444.815C749.149 444.643 753.107 444.5 756.281 447.403L756.129 447.996C752.793 449.326 748.932 448.612 745.442 449.227C744.244 449.438 743.691 449.675 742.956 450.629C744.434 455.083 752.983 456.503 756.389 460.154C757.744 461.608 757.835 462.606 757.746 464.448C756.31 467.321 753.883 468.365 751.101 469.594C749.79 469.846 748.457 469.924 747.124 469.948C743.468 470.015 740.732 469.502 738.021 466.874L738.094 466.129C742.316 464.83 747.993 467.373 751.926 465.469C752.78 465.055 752.684 464.787 753.025 463.965C751.913 459.891 741.931 457.821 738.966 454.134C738.184 453.162 737.786 452.011 737.959 450.762C738.318 448.178 740.641 446.377 742.599 444.941Z"/><path fill="#565556" d="M761.518 465.174C762.781 464.31 764.504 464.617 765.391 465.864C766.277 467.111 766.001 468.839 764.77 469.747C763.954 470.349 762.876 470.464 761.951 470.048C761.026 469.631 760.398 468.748 760.308 467.737C760.218 466.727 760.681 465.747 761.518 465.174Z"/><path fill="#565556" d="M847.313 465.185C848.567 464.59 850.067 465.107 850.688 466.347C851.31 467.588 850.825 469.098 849.597 469.746C848.78 470.177 847.792 470.132 847.017 469.629C846.241 469.126 845.799 468.242 845.861 467.32C845.922 466.398 846.478 465.581 847.313 465.185Z"/><path fill="#565556" d="M802.519 465.154C803.351 464.748 804.337 464.824 805.096 465.353C805.856 465.882 806.269 466.78 806.177 467.701C806.084 468.621 805.5 469.42 804.65 469.787C803.378 470.336 801.9 469.769 801.321 468.511C800.742 467.252 801.274 465.762 802.519 465.154Z"/></svg>