<?xml version="1.0" encoding="utf-8" ?><svg xmlns="http://www.w3.org/2000/svg" xmlns:xlink="http://www.w3.org/1999/xlink" width="1024" height="1024" viewBox="0 0 1024 1024"><path d="M512.047 243.98C519.116 253.319 525.48 263.196 532.034 272.899L561.829 316.936L621.406 403.761C635.917 425.375 650.614 446.864 665.497 468.224L667.007 470.633C671.106 476.356 675.755 481.945 679.468 487.9C680.648 489.681 681.877 491.444 682.942 493.297C686.13 497.617 689.376 501.895 692.231 506.448C693.155 507.846 694.1 509.234 694.966 510.669C697.854 514.658 700.91 518.599 703.36 522.877C704.622 524.542 705.833 526.109 706.762 527.993C708.923 530.584 710.781 533.39 712.509 536.287C713.76 537.981 714.893 539.58 715.833 541.474C717.247 543.268 718.553 545.071 719.786 546.994C721.233 549.074 722.714 551.121 723.939 553.342C724.639 554.151 725.332 554.934 725.953 555.807C727.283 557.565 728.665 559.278 729.735 561.211L730.229 561.632C736.886 569.231 742.335 577.985 747.8 586.454L647.309 586.565C629.716 586.579 612.064 586.366 594.48 586.898C587.089 578.97 581.407 568.562 575.333 559.53C569.144 550.326 562.495 541.394 556.497 532.072L556.466 543.968C556.491 546.527 556.593 549.111 556.472 551.667L556.489 554.233C556.839 559.423 557.251 564.629 557.23 569.833C557.208 575.313 556.718 580.833 556.943 586.305L468.486 586.296C467.717 579.67 467.369 571.224 468.431 564.621L468.56 554.121L468.527 551.029L468.548 541.379C468.632 537.93 468.763 534.483 468.942 531.038C458.378 543.369 450.007 558.216 441.056 571.78C437.841 576.652 434.511 581.969 430.721 586.404C397.481 586.699 364.24 586.749 331 586.554C312.887 586.526 294.856 587.024 276.737 586.445C282.056 577.986 287.472 567.962 294.639 560.92C295.715 558.817 297.31 556.882 298.686 554.962L300.643 552.513C301.946 550.198 303.676 548.121 305.281 546.009C306.32 544.386 307.454 542.931 308.697 541.459C309.872 539.188 311.44 537.333 313.056 535.374C314.728 532.571 316.65 530.048 318.655 527.478C319.758 525.321 321.3 523.411 322.731 521.463C325.527 517.146 328.476 512.93 331.572 508.822C332.198 507.638 332.976 506.539 333.714 505.423C336.548 500.999 339.521 496.771 342.663 492.565C343.402 491.006 344.54 489.715 345.604 488.37C349.43 482.034 354.022 476.123 358.07 469.915L359.432 467.677C394.886 416.412 429.969 364.891 464.679 313.119L492.167 272.788C498.552 263.225 504.624 252.727 512.047 243.98Z"/><path fill="#E84F46" d="M556.492 446.396C566.287 458.49 574.5 472.241 583.044 485.228C587.257 491.632 591.547 500.136 597.42 505.034C603.199 500.166 611.572 496.706 618.303 493.193C634.004 484.998 650.281 477.264 665.497 468.224L667.007 470.633C671.106 476.356 675.755 481.945 679.468 487.9C680.648 489.681 681.877 491.444 682.942 493.297C686.13 497.617 689.376 501.895 692.231 506.448C693.155 507.846 694.1 509.234 694.966 510.669C697.854 514.658 700.91 518.599 703.36 522.877C704.622 524.542 705.833 526.109 706.762 527.993C708.923 530.584 710.781 533.39 712.509 536.287C713.76 537.981 714.893 539.58 715.833 541.474C717.247 543.268 718.553 545.071 719.786 546.994C721.233 549.074 722.714 551.121 723.939 553.342C724.639 554.151 725.332 554.934 725.953 555.807C727.283 557.565 728.665 559.278 729.735 561.211L730.229 561.632C736.886 569.231 742.335 577.985 747.8 586.454L647.309 586.565C629.716 586.579 612.064 586.366 594.48 586.898C587.089 578.97 581.407 568.562 575.333 559.53C569.144 550.326 562.495 541.394 556.497 532.072C555.77 503.574 556.445 474.914 556.492 446.396Z"/><path fill="#D14538" d="M597.42 505.034C603.199 500.166 611.572 496.706 618.303 493.193C634.004 484.998 650.281 477.264 665.497 468.224L667.007 470.633C671.106 476.356 675.755 481.945 679.468 487.9C680.648 489.681 681.877 491.444 682.942 493.297C678.144 491.177 670.637 484.877 665.634 481.729C665.811 484.399 665.816 486.981 665.708 489.653C664.801 487.242 665.505 484.792 664.642 482.437L663.687 482.949C663.341 482.883 662.995 482.688 662.648 482.751C660.311 483.173 654.96 486.621 652.431 487.777C635.403 495.555 618.307 503.082 601.431 511.211L600.136 509.192L598.384 506.868L597.42 505.034Z"/><path d="M598.384 506.868L642.219 483.655C649.339 479.818 656.345 475.44 663.601 471.91L663.801 479.799C642.566 489.45 620.888 498.54 600.136 509.192L598.384 506.868Z"/><path d="M667.007 470.633C671.106 476.356 675.755 481.945 679.468 487.9C674.89 487.27 670.106 481.918 665.991 479.58C665.709 476.289 665.412 473.664 667.007 470.633Z"/><path d="M601.431 511.211C618.307 503.082 635.403 495.555 652.431 487.777C654.96 486.621 660.311 483.173 662.648 482.751C662.995 482.688 663.341 482.883 663.687 482.949C663.658 485.38 663.608 487.785 663.821 490.21C651.24 495.308 638.623 500.316 625.972 505.237C618.59 508.097 611.136 511.207 603.556 513.474C602.553 512.848 602.093 512.179 601.431 511.211Z"/><path d="M665.497 524.678C682.933 528.027 706.397 546.39 723.939 553.342C724.639 554.151 725.332 554.934 725.953 555.807C719.022 552.695 711.798 550.257 704.738 547.451L665.699 531.806C665.522 529.444 665.548 527.047 665.497 524.678Z"/><path d="M666.113 513.45C683.828 520.038 698.79 533.307 715.833 541.474C717.247 543.268 718.553 545.071 719.786 546.994C702.034 538.104 684.233 528.711 665.804 521.316C665.739 518.693 665.959 516.068 666.113 513.45Z"/><path d="M665.905 502.82C681.158 508.463 692.47 520.613 706.762 527.993C708.923 530.584 710.781 533.39 712.509 536.287C708.131 534.36 703.874 531.361 699.721 528.925C688.633 522.421 677.812 515.71 666.016 510.537C665.814 507.968 665.883 505.395 665.905 502.82Z"/><path d="M665.902 542.03L665.915 534.971C678.27 539.474 690.129 545.088 702.102 550.499C711.054 554.545 720.113 559.029 729.735 561.211L730.229 561.632C723.491 563.165 675.696 545.381 665.902 542.03Z"/><path d="M665.576 499.913C665.517 497.712 665.118 494.941 666.587 493.162C673.433 493.87 686.928 506.953 694.103 510.282C694.389 510.415 694.678 510.54 694.966 510.669C697.854 514.658 700.91 518.599 703.36 522.877C697.274 520.582 691.384 515.31 685.925 511.715C679.309 507.358 672.648 503.485 665.576 499.913Z"/><path d="M665.634 481.729C670.637 484.877 678.144 491.177 682.942 493.297C686.13 497.617 689.376 501.895 692.231 506.448C688.171 504.687 684.336 501.233 680.688 498.661C675.856 495.255 671.014 492.261 665.708 489.653C665.816 486.981 665.811 484.399 665.634 481.729Z"/><path d="M662.546 492.939L663.111 493.084C664.085 494.959 663.593 498.486 663.582 500.618C653.995 504.429 643.849 507.323 634.026 510.507C625.028 513.423 615.779 517.053 606.482 518.74C605.814 517.744 605.328 516.736 604.812 515.657C605.563 514.496 614.501 512.188 616.353 511.454L662.546 492.939Z"/><path d="M662.39 503.618L663.189 503.788C663.969 505.963 663.592 508.888 663.566 511.195C657.384 513.24 650.835 514.506 644.514 516.107L610.314 524.954C609.434 523.572 608.443 522.238 607.508 520.891C612.76 520.193 617.865 518.289 622.878 516.627L647.476 508.389C652.395 506.712 657.295 504.682 662.39 503.618Z"/><path d="M662.59 514.126L663.275 514.66C663.864 516.991 663.588 519.505 663.518 521.893C656.594 523.686 649.215 524.63 642.175 525.975C632.874 527.753 623.579 529.977 614.178 531.137C613.463 529.901 612.545 528.768 612.776 527.28C617.951 524.869 624.473 523.845 630.03 522.412C640.863 519.57 651.717 516.808 662.59 514.126Z"/><path d="M660.874 525.182C661.994 525.003 662.041 524.841 663.123 525.351C664.047 527.396 663.632 530.099 663.559 532.312C649.403 535.212 634.048 536.975 619.629 537.825C617.934 536.977 616.973 534.862 615.994 533.296C631.049 531.1 645.839 527.429 660.874 525.182Z"/><path d="M661.154 535.707C662.223 535.619 662.241 535.602 663.124 536.204C663.901 538.101 663.62 540.424 663.596 542.447C650.327 543.399 636.895 544.338 623.597 544.556C622.376 543.241 621.385 541.617 620.344 540.152C633.998 539.338 647.587 537.391 661.154 535.707Z"/><path d="M666.019 545.5C683.89 550.384 701.01 558.066 718.714 563.617L717.648 564.192C710.358 561.272 701.694 560.391 694.026 558.632C684.68 556.487 675.382 553.674 665.938 552.037L666.019 545.5Z"/><path d="M653.649 546.287C655.788 546.101 658.054 545.797 660.197 545.935C661.652 546.029 662.358 546.468 663.271 547.559C663.47 548.988 663.523 549.892 663.201 551.331C660.249 552.966 641.703 551.515 636.89 551.508C635.171 551.547 633.444 551.603 631.726 551.569C629.666 551.528 628.411 551.001 626.948 549.481L627.267 548.521C632.842 545.32 646.92 546.423 653.649 546.287Z"/><path d="M629.979 554.609C640.447 554.058 652.316 553.882 662.59 555.874C663.674 557.107 663.567 558.187 663.802 559.788C655.253 559.281 640.492 559.587 632.957 556.747C631.789 556.307 630.87 555.454 629.979 554.609Z"/><path d="M694.406 564.263C689.85 563.724 669.142 562.243 666.371 559.182C666.235 558.019 666.219 557.811 666.69 556.749C672.036 555.424 690.255 561.597 696.385 563.279L694.406 564.263Z"/><path d="M635.406 561.185C642.069 560.585 658.619 561.773 663.918 565.365C657.162 565.997 641.133 564.142 635.406 561.185Z"/><path fill="#2B1313" d="M680.468 567.094C676.565 566.827 672.438 566.731 668.721 565.417C672.638 565.347 676.498 565.404 680.308 566.421L680.468 567.094Z"/><path fill="#2B1313" d="M696.385 563.279C698.772 563.704 701.241 564.022 703.594 564.598L703.751 565.322L704.138 565.303L704.174 564.74L703.38 565.309C700.381 565.026 697.389 564.678 694.406 564.263L696.385 563.279Z"/><path fill="#D14538" d="M718.714 563.617C721.547 564.089 724.366 564.501 727.103 565.395C723.939 565.388 720.706 565.036 717.648 564.192L718.714 563.617Z"/><path fill="#912925" d="M680.308 566.421C683.03 566.482 686.942 566.166 689.373 567.432L688.644 567.829L687.273 566.654L688.065 567.872C685.615 567.702 682.824 567.771 680.468 567.094L680.308 566.421Z"/><path fill="#E84F46" d="M468.442 445.949L468.55 507.454C468.562 515.262 469.287 523.274 468.942 531.038C458.378 543.369 450.007 558.216 441.056 571.78C437.841 576.652 434.511 581.969 430.721 586.404C397.481 586.699 364.24 586.749 331 586.554C312.887 586.526 294.856 587.024 276.737 586.445C282.056 577.986 287.472 567.962 294.639 560.92C295.715 558.817 297.31 556.882 298.686 554.962L300.643 552.513C301.946 550.198 303.676 548.121 305.281 546.009C306.32 544.386 307.454 542.931 308.697 541.459C309.872 539.188 311.44 537.333 313.056 535.374C314.728 532.571 316.65 530.048 318.655 527.478C319.758 525.321 321.3 523.411 322.731 521.463C325.527 517.146 328.476 512.93 331.572 508.822C332.198 507.638 332.976 506.539 333.714 505.423C336.548 500.999 339.521 496.771 342.663 492.565C343.402 491.006 344.54 489.715 345.604 488.37C349.43 482.034 354.022 476.123 358.07 469.915L359.432 467.677C366.627 472.856 375.298 476.892 383.096 481.185C397.803 489.281 412.553 497.674 427.802 504.715C433.89 497.575 438.784 489.509 444.005 481.734C452.048 469.755 460.125 457.739 468.442 445.949Z"/><path d="M361.005 502.677C369.197 505.23 412.41 518.453 415.928 522.139L415.551 523.221C407.616 525.718 388.905 516.267 379.574 515.583C373.474 513.688 367.255 512.205 360.957 511.143C360.674 508.578 359.98 505.081 361.005 502.677Z"/><path d="M361.098 513.659C366.788 515.194 372.637 516.538 378.421 517.671C385.032 519.202 403.804 523.113 408.978 525.79C410.346 526.498 411.457 527.362 411.956 528.856L411.278 529.59C405.505 530.397 369.896 523.123 361.075 521.777C360.937 519.05 360.989 516.385 361.098 513.659Z"/><path d="M300.643 552.513C320.523 544.565 338.692 531.679 359.025 524.916C358.874 527.508 358.78 530.115 358.491 532.696C351.281 535.119 344.086 537.557 337.005 540.342C328.976 543.499 305.341 554.282 298.686 554.962L300.643 552.513Z"/><path d="M358.894 502.691C358.758 505.366 358.292 508.436 358.721 511.072C349.073 515.262 339.663 519.979 330.533 525.202C324.94 528.434 318.987 532.974 313.056 535.374C314.728 532.571 316.65 530.048 318.655 527.478C323.122 525.205 327.693 521.227 331.934 518.413C340.629 512.686 349.629 507.438 358.894 502.691Z"/><path d="M308.697 541.459C325.633 532.502 341.729 521.776 358.957 513.385C358.924 516.245 358.944 519.119 358.844 521.977C346.225 526.428 334.277 532.128 322.241 537.939C316.717 540.606 311.027 543.909 305.281 546.009C306.32 544.386 307.454 542.931 308.697 541.459Z"/><path d="M345.604 488.37C349.43 482.034 354.022 476.123 358.07 469.915C358.465 471.394 358.929 472.831 358.948 474.374C359.232 476.691 359.388 478.838 358.545 481.064L358.77 481.474C359.079 484.425 358.902 487.144 358.279 490.047C349.889 494.948 341.937 500.285 333.714 505.423C336.548 500.999 339.521 496.771 342.663 492.565C343.402 491.006 344.54 489.715 345.604 488.37Z"/><path d="M345.604 488.37C349.43 482.034 354.022 476.123 358.07 469.915C358.465 471.394 358.929 472.831 358.948 474.374C359.232 476.691 359.388 478.838 358.545 481.064L358.77 481.474C354.26 485.374 347.911 489.808 342.663 492.565C343.402 491.006 344.54 489.715 345.604 488.37Z"/><path fill="#D14538" d="M358.948 474.374C359.232 476.691 359.388 478.838 358.545 481.064L358.77 481.474C354.26 485.374 347.911 489.808 342.663 492.565C343.402 491.006 344.54 489.715 345.604 488.37C350.122 486.031 354.367 482.635 358.537 479.715C358.545 477.913 358.743 476.163 358.948 474.374Z"/><path d="M358.134 535.741C359.544 535.297 360.48 535.305 361.927 535.384L362.378 535.674L363.099 535.785C370.429 536.886 397.453 537.256 402.543 540.536L402.579 541.355C399.705 544.079 394.898 543.954 391.146 543.866C381.656 543.643 371.246 541.634 361.871 542.762C360.55 543.248 359.908 542.859 358.606 542.897C358.6 540.537 358.808 538.019 358.134 535.741Z"/><path fill="#D14538" d="M358.134 535.741C359.544 535.297 360.48 535.305 361.927 535.384L362.378 535.674C361.054 536.74 361.034 537.791 360.943 539.5C360.867 540.945 360.876 541.747 361.871 542.762C360.55 543.248 359.908 542.859 358.606 542.897C358.6 540.537 358.808 538.019 358.134 535.741Z"/><path d="M358.134 535.741C358.808 538.019 358.6 540.537 358.606 542.897L322.268 554.023C314.249 556.548 305.604 559.889 297.291 561.181C296.3 561.335 295.564 561.309 294.639 560.92C300.904 559.447 307.501 556.605 313.5 554.225C328.467 548.29 343.06 541.393 358.134 535.741Z"/><path d="M331.572 508.822C341.18 504.721 348.814 497.065 358.565 492.986L358.57 500.409C351.882 503.963 345.227 507.547 338.804 511.567C333.654 514.789 328.306 519.142 322.731 521.463C325.527 517.146 328.476 512.93 331.572 508.822Z"/><path fill="#D14538" d="M358.894 502.691C359.579 502.633 360.355 502.439 361.005 502.677C359.98 505.081 360.674 508.578 360.957 511.143C367.255 512.205 373.474 513.688 379.574 515.583C379.299 515.63 379.025 515.687 378.748 515.724C375.686 516.139 372.832 514.513 370.054 513.655C367.543 512.879 364.498 512.648 361.893 512.251L361.862 512.842C365.876 514.592 375.645 514.678 378.353 517.276L378.421 517.671C372.637 516.538 366.788 515.194 361.098 513.659C361.039 513.386 361.01 513.105 360.922 512.84C360.494 511.55 359.895 511.545 358.721 511.072C358.292 508.436 358.758 505.366 358.894 502.691Z"/><path d="M360.588 492.237C364.905 493.085 418.23 514.744 419.368 515.739C419.922 516.223 419.667 516.798 419.643 517.473L418.196 518.281C414.141 518.288 368.426 502.553 360.719 500.057L360.588 492.237Z"/><path d="M361.015 471.425C371.395 476.217 382.92 483.555 393.139 489.17C403.084 494.633 413.727 499.509 423.354 505.424C424.781 506.301 425.246 506.45 425.942 507.958C425.805 508.012 425.674 508.083 425.531 508.119C425.512 508.123 424.35 508.307 424.295 508.301C421.029 507.93 368.624 483.319 360.909 479.314C360.775 476.648 360.85 474.084 361.015 471.425Z"/><path d="M360.647 482.129C373.897 487.151 386.813 493.97 399.608 500.056C406.896 503.522 415.139 506.588 422.052 510.686C423.1 511.307 422.872 511.386 423.164 512.489C422.996 512.571 422.834 512.665 422.661 512.734C421.824 513.064 421.394 513.014 420.525 512.797C413.787 511.114 406.793 507.727 400.31 505.188L360.915 489.815L360.647 482.129Z"/><path d="M361.083 524.603C371.102 526.163 381.111 527.782 391.111 529.459C394.667 530.075 405.867 531.186 407.846 533.998L407.418 535.91C400.913 537.529 369.436 533.208 361.088 532.393C360.978 529.789 361.022 527.206 361.083 524.603Z"/><path d="M354.771 547.541C355.417 547.496 356.102 547.42 356.752 547.454C358.061 547.522 358.509 547.625 359.346 548.627L359.149 549.983C355.681 554.882 318.882 561.234 310.266 563.004L302.865 564.258C311.763 560.967 321.023 558.419 330.055 555.499C338.286 552.837 346.408 549.765 354.771 547.541Z"/><path d="M360.819 546.497C371.866 546.039 385.905 545.577 396.712 547.617C397.555 547.777 397.168 547.59 397.776 548.495L397.028 550.447C389.835 550.767 367.5 553.521 361.621 551.522C360.6 550.114 360.834 548.176 360.819 546.497Z"/><path d="M379.779 554.714C383.873 554.484 387.77 554.382 391.853 554.802L392.138 555.592L392.875 555.253L392.66 555.553C387.334 557.732 381.257 557.874 375.582 558.35C370.88 558.673 365.613 560.283 361.101 558.348L360.964 557.648C365.266 554.162 374.409 554.87 379.779 554.714Z"/><path d="M322.241 564.266C329.89 562.492 351.132 556.381 357.889 557.242C358.567 558.152 358.493 558.125 358.349 559.262C354.441 563.034 330.008 563.547 323.121 565.273L322.241 564.266Z"/><path d="M382.482 561.7C384.817 561.403 387.211 561.604 389.559 561.682C382.829 563.28 375.838 564.009 368.98 564.862C365.975 565.322 362.937 565.466 359.907 565.666C366.777 562.512 375.062 562.401 382.482 561.7Z"/><path fill="#2B1313" d="M353.295 565.674C354.675 565.429 355.993 565.461 357.386 565.485L357.581 565.8C354.306 566.842 351.178 567.069 347.765 567.286C346.432 567.547 345.038 567.407 343.687 567.365C346.768 566.325 350.084 566.085 353.295 565.674Z"/><path fill="#912925" d="M323.121 565.273C321.103 565.58 319.179 565.907 317.127 565.763C318.416 564.761 320.643 564.606 322.241 564.266L323.121 565.273Z"/><path fill="#E84F46" d="M511.528 493.112C521.05 504.466 529.285 516.839 536.083 530.005C541.798 541.012 546.837 553.5 554.508 563.273L554.298 562.706C551.976 556.579 539.182 531.926 540.049 527.801C541.921 528.301 543.348 531.186 544.294 532.821C544.993 534.026 545.676 535.223 546.257 536.491L548.463 533.789L549.285 533.215C552.894 534.924 554.035 541.01 556.466 543.968C556.491 546.527 556.593 549.111 556.472 551.667L556.489 554.233C556.839 559.423 557.251 564.629 557.23 569.833C557.208 575.313 556.718 580.833 556.943 586.305L468.486 586.296C467.717 579.67 467.369 571.224 468.431 564.621L468.56 554.121L468.527 551.029L468.548 541.379C469.063 540.789 469.576 540.183 470.132 539.631C470.98 538.79 471.338 538.271 472.598 538.257L473.041 539.57L475.727 540.283C476.606 538.346 477.535 536.392 478.578 534.538C479.722 532.504 481.673 528.872 483.952 528.264C484.614 529.423 484.291 529.875 484.083 531.134C485.083 531.446 486.139 531.707 487.095 532.133C494.591 518.759 501.895 505.11 511.528 493.112Z"/><path fill="#2B1313" d="M484.083 531.134C485.083 531.446 486.139 531.707 487.095 532.133C481.946 542.439 477.143 553.039 470.526 562.506C470.464 556.256 480.575 537.025 484.083 531.134Z"/><path fill="#2B1313" d="M468.548 541.379C469.063 540.789 469.576 540.183 470.132 539.631C470.98 538.79 471.338 538.271 472.598 538.257L473.041 539.57L475.727 540.283C474.153 544.929 471.551 550.229 468.56 554.121L468.527 551.029L468.548 541.379Z"/><path fill="#D14538" d="M468.548 541.379C469.063 540.789 469.576 540.183 470.132 539.631C470.98 538.79 471.338 538.271 472.598 538.257L473.041 539.57C471.48 543.367 469.975 547.187 468.527 551.029L468.548 541.379Z"/><path fill="#E84F46" d="M548.463 533.789L549.285 533.215C552.894 534.924 554.035 541.01 556.466 543.968C556.491 546.527 556.593 549.111 556.472 551.667C553.338 546.777 550.054 539.384 548.463 533.789Z"/><path fill="#2B1313" d="M546.257 536.491L548.463 533.789C550.054 539.384 553.338 546.777 556.472 551.667L556.489 554.233C551.857 549.806 548.988 542.217 546.257 536.491Z"/><defs><linearGradient id="gradient_0" gradientUnits="userSpaceOnUse" x1="496.65558" y1="532.06873" x2="490.81458" y2="528.2395"><stop offset="0" stop-color="#1E0408"/><stop offset="1" stop-color="#191918"/></linearGradient></defs><path fill="url(#gradient_0)" d="M510.208 498.84C510.281 499.116 510.374 499.387 510.425 499.669C510.784 501.662 510.246 504.356 509.445 506.185C507.087 511.571 502.62 516.26 499.735 521.442C492.507 534.424 486.359 548.792 478.085 561.093C477.444 554.024 504.705 506.858 510.208 498.84Z"/><path d="M510.018 510.678L509.968 519.366C508.378 521.532 506.832 523.708 505.501 526.046C503.263 529.979 497.071 544.235 493.535 545.803L491.218 545.78C496.633 533.51 502.464 521.796 510.018 510.678Z"/><path fill="#2B1313" d="M526.832 520.383C534.459 529.83 542.503 550.812 547.456 562.478C543.822 557.609 525.81 527.643 524.226 522.891C524.294 522.094 524.345 521.294 524.404 520.495C525.563 520.75 525.725 520.787 526.832 520.383Z"/><path d="M513.561 511.429C520.44 520.26 526.065 531.018 530.314 541.322C529.503 542.081 528.879 542.646 528.242 543.559C524.036 537.276 515.593 524.515 513.923 517.445C513.477 515.555 513.58 513.367 513.561 511.429Z"/><path fill="#2B1313" d="M513.566 525.328C519.184 530.126 526.392 553.611 527.959 561.616C523.053 556.82 514.59 532.475 513.566 525.328Z"/><path d="M524.226 522.891C521.187 518.208 512.063 505.916 512.928 500.762L513.567 500.594C517.73 503.356 524.216 515.541 526.832 520.383C525.725 520.787 525.563 520.75 524.404 520.495C524.345 521.294 524.294 522.094 524.226 522.891Z"/><defs><linearGradient id="gradient_1" gradientUnits="userSpaceOnUse" x1="504.45898" y1="542.8714" x2="501.24335" y2="541.23175"><stop offset="0" stop-color="#3B1214"/><stop offset="1" stop-color="#221A1A"/></linearGradient></defs><path fill="url(#gradient_1)" d="M509.349 524.9C510.087 525.645 510.413 526.43 510.539 527.485C510.901 530.503 508.509 533.4 506.875 535.728C502.658 541.737 499.791 552.446 496.527 559.629L496.286 559.851L496.051 559.302C499.228 547.724 502.497 534.954 509.349 524.9Z"/><path fill="#2B1313" d="M509.797 536.332C511.996 544.107 510.23 556.844 506.478 563.941C507.375 557.139 508.992 550.936 509.058 543.977C508.057 545.834 507.179 547.748 506.283 549.657C504.58 554.69 502.974 559.965 499.879 564.347C502.46 554.634 505.204 545.331 509.797 536.332Z"/><path fill="#2B1313" d="M513.502 536.92C517.836 544.012 520.114 554.598 522.347 562.656C522.207 562.563 522.058 562.483 521.928 562.377C516.795 558.192 514.567 543.125 513.502 536.92Z"/><path fill="#2B1313" d="M530.314 541.322C533.509 547.528 537.656 554.161 539.84 560.768C538.116 558.579 537.024 556.085 535.476 553.785C533.28 550.522 529.692 547.163 528.242 543.559C528.879 542.646 529.503 542.081 530.314 541.322Z"/><path fill="#2B1313" d="M491.218 545.78L493.535 545.803C489.09 549.48 487.332 557.363 483.952 562.177C485.97 556.47 488.268 551.071 491.218 545.78Z"/><path d="M495.257 548.363C496.001 552.252 492.171 558.671 490.331 562.076C490.024 557.877 493.384 552.059 495.257 548.363Z"/><path fill="#2B1313" d="M528.4 548.907C531.486 552.588 533.07 557.763 534.819 562.2C531.309 559.465 529.261 553.134 528.4 548.907Z"/><path d="M235.558 607.573C239.24 607.363 259.342 607.679 262.015 608.644C262.933 608.975 263.295 609.422 263.77 610.244C266.17 614.396 267.55 619.83 269.086 624.363L278.816 653.876C280.733 659.72 282.392 665.911 285.017 671.473C285.111 671.672 285.21 671.868 285.306 672.066C288.856 665.187 291.133 657.197 293.482 649.834C297.855 636.124 301.781 622.158 306.822 608.681C315.397 606.707 329.561 607.675 338.614 608.039C339.25 615.708 338.978 623.549 338.984 631.244L338.98 668.864C338.963 697.278 339.745 725.904 338.938 754.285C338.862 756.953 338.907 759.834 338.053 762.385C337.264 763.231 336.566 763.601 335.419 763.821C331.303 764.613 313.968 764.486 310.828 762.507C307.821 755.18 309.823 707.268 309.995 696.25L310.057 681.071C307.551 689.983 288.754 754.405 286.222 757.376L285.2 757.339C282.438 754.545 263.112 689.941 260.376 681.039C260.832 697.289 261.077 713.544 261.11 729.8C261.146 740.96 261.908 753.013 259.558 763.963C253.595 764.497 237.83 765.48 232.627 763.181C231.762 761.486 231.684 759.124 231.591 757.225C231.174 748.701 231.529 740.01 231.515 731.468L231.557 677.335L231.554 633.082C231.606 625.154 231.419 617.071 232.104 609.174C233.098 607.947 234.058 607.974 235.558 607.573Z"/><path d="M739.769 608.277C739.968 608.25 740.166 608.218 740.366 608.197C744.461 607.778 748.857 608.037 752.986 607.979C762.635 607.843 777.555 606.272 785.325 613.127C791.199 618.31 792.196 626.243 792.767 633.6C793.27 640.079 792.758 646.341 792.605 652.804C792.404 661.314 792.491 669.848 792.487 678.361L792.514 717.599C792.52 726.415 792.929 735.483 791.775 744.23C791.145 749.003 790.153 753.558 786.859 757.242C781.586 763.143 773.978 764.032 766.571 764.477C754.31 764.724 730.672 766.924 720.725 759.144C716.458 755.807 714.193 750.402 713.508 745.144C712.668 738.692 712.991 731.862 712.991 725.359L712.991 693.908L712.966 654.959C712.963 646.51 712.641 637.895 713.518 629.486C713.989 624.966 714.491 619.958 717.42 616.356C723.76 608.558 730.772 609.263 739.769 608.277ZM758.561 737.921C759.802 737.549 761.216 737.259 761.899 736.037C762.905 734.237 762.73 731.186 762.783 729.172C763.192 713.536 762.478 697.719 762.474 682.055C762.472 671.19 763.734 645.737 761.655 636.555C759.677 634.428 756.902 634.099 754.112 634.002C751.653 633.926 749.192 633.949 746.735 634.068C745.154 634.824 744.41 635.31 743.809 637.081C741.571 643.674 743.09 670.76 743.087 679.675C743.081 696.584 742.391 713.672 743.184 730.563C743.274 732.478 743.421 734.337 744.124 736.135C747.829 739.076 754.107 738.188 758.561 737.921Z"/><path d="M444.299 607.56C461.051 609.17 499.3 604.69 512.421 610.983C516.255 612.822 519.366 616.927 520.705 620.902C523.842 630.211 524.511 684.609 520.34 692.533C516.96 698.953 510.972 701.327 504.483 703.431C507.835 711.647 525.388 755.273 525.106 761.81C525.059 762.884 525.18 762.467 524.362 763.29C517.349 765.505 503.717 764.242 496.048 763.761C494.835 761.164 493.788 758.55 492.782 755.868C485.891 738.485 481.534 720.173 474.135 702.93C472.85 714.134 473.512 725.759 473.506 737.047C473.501 746.012 473.005 755.003 473.317 763.96C463.391 764.201 453.57 764.415 443.647 763.9C443.29 728.319 443.253 692.736 443.537 657.154L443.532 628.159C443.519 621.637 442.948 613.934 444.299 607.56ZM473.531 634.457C473.517 643.709 473.448 652.968 473.551 662.219C473.609 667.467 474.49 673.477 473.45 678.601C477.674 678.371 481.885 678.569 486.099 678.397C488.126 677.998 490.027 677.748 491.8 676.621C493.73 671.689 493.607 642.818 491.735 637.482C491.281 636.189 490.561 635.635 489.31 635.15C487.068 634.279 483.926 634.383 481.525 634.245L473.531 634.457Z"/><path d="M629.594 607.686C629.723 607.664 629.851 607.62 629.982 607.619C638.356 607.526 646.839 608.055 655.238 608.071C664.575 608.09 673.91 607.41 683.216 608.598C686.192 608.978 689.099 609.752 691.746 611.192C696.121 613.572 699.058 617.425 700.437 622.187C703.472 632.669 703.387 672.703 701.711 683.954C701.164 687.627 700.079 691.238 698.136 694.427C695.443 698.848 689.197 701.648 684.282 702.761C687 712.239 706.667 757.535 705.112 763.101C700.133 765.922 682.689 763.963 676.191 764.148C674.162 759.395 672.58 754.506 670.958 749.604C666.792 739.109 663.109 726.691 659.148 715.786C658.194 713.159 656.452 706.995 653.817 705.765C648.853 709.724 656.393 753.579 651.396 762.88C646.813 765.634 629.184 764.205 623.54 763.425C622.232 743.542 623.159 723.281 623.01 703.343C622.776 671.91 621.901 640.156 623.146 608.753L629.594 607.686ZM652.524 677.96C658.506 678.242 663.947 678.363 669.866 677.23C670.601 676.102 671.327 674.957 671.63 673.629C673.222 666.662 673.149 647.574 671.766 640.376C671.442 638.695 670.993 636.551 669.508 635.488C665.791 632.826 657.756 634.011 653.275 634.035C651.469 636.455 652.495 671.978 652.524 677.96Z"/><path d="M369.649 608.436C383.592 606.768 398.637 607.909 412.699 608.041C414.718 619.111 415.983 630.328 417.536 641.47C419.359 654.066 421.25 666.651 423.208 679.226C427.374 707.149 432.337 735.063 435.609 763.1C426.149 765.159 416.177 763.802 406.578 763.815C405.099 757.977 404.382 752.021 403.651 746.056C403.27 742.883 402.913 739.707 402.581 736.528C394.935 736.306 387.277 736.488 379.63 736.592C377.855 745.602 377.111 754.778 375.295 763.784C367.848 764.112 359.945 764.734 352.522 764.107C350.567 763.941 348.558 763.77 347.258 762.209C346.773 755.268 348.548 747.535 349.547 740.662L354.503 707.02L364.265 642.838C366.018 631.392 367.368 619.788 369.649 608.436ZM382.619 710.086L390.875 710.105C393.663 710.168 396.46 710.183 399.243 710.355C397.726 696.846 396.073 683.354 394.285 669.879C393.366 663.074 392.86 655.348 390.62 648.848C385.917 667.365 386.115 690.794 382.619 710.086Z"/><path d="M544.742 607.227C552.081 606.929 559.174 607.644 566.48 607.864C576.401 608.163 596.893 606.135 604.624 612.21C609.321 615.9 611.304 621.266 611.856 627.025C612.773 636.581 612.32 646.188 612.36 655.764C612.41 667.602 613.774 680.702 611.114 692.306C610.384 695.489 609.034 698.473 606.897 700.964C597.279 712.174 577.583 707.342 564.793 708.567L564.078 708.641C563.985 714.822 563.951 721.004 563.978 727.185C563.959 735.39 565.03 751.589 564 758.818C563.818 760.096 563.359 761.433 562.445 762.379C559.211 765.727 539.914 764.085 534.636 763.965C534.137 735.076 534.424 706.187 534.39 677.289C534.372 662.918 533.8 648.44 533.969 634.093C534.017 630.073 533.847 610.363 535.434 608.194C538.489 607.472 541.62 607.401 544.742 607.227ZM564.094 680.976C569.674 681.086 575.361 681.428 580.87 680.361C582.208 679.387 582.36 678.916 582.668 677.296C584.124 669.623 584.387 643.691 581.579 637.005C578.3 633.809 572.871 634.093 568.57 634.218C568.462 634.221 568.355 634.231 568.247 634.238C566.787 634.382 565.282 634.294 564.046 635.124C562.449 649.974 563.837 666.021 564.094 680.976Z"/></svg>